<svg width="78" height="26" viewBox="0 0 78 26" fill="none" xmlns="http://www.w3.org/2000/svg">
<path d="M4.78395 22.7835C3.33116 21.6532 2.14833 20.2135 1.32138 18.569C0.494417 16.9245 0.0440831 15.1165 0.00307635 13.2762C-0.0379304 11.436 0.33142 9.60968 1.0843 7.92997C1.83719 6.25027 2.95471 4.75932 4.35571 3.56541C5.75671 2.37149 7.40602 1.50457 9.18387 1.02761C10.9617 0.550654 12.8235 0.475624 14.6339 0.807971C16.4444 1.14032 18.1581 1.8717 19.6507 2.94901C21.1432 4.02631 22.3771 5.42249 23.2627 7.03617L17.2683 10.326C16.8712 9.60243 16.318 8.97641 15.6488 8.49337C14.9795 8.01032 14.2111 7.68238 13.3994 7.53337C12.5876 7.38435 11.7528 7.41799 10.9556 7.63185C10.1585 7.84571 9.41897 8.23442 8.79079 8.76975C8.16261 9.30508 7.66153 9.97359 7.32395 10.7267C6.98637 11.4799 6.82076 12.2988 6.83915 13.1239C6.85754 13.949 7.05946 14.7597 7.43025 15.4971C7.80104 16.2345 8.3314 16.88 8.98281 17.3868L4.78395 22.7835Z" fill="#FCECE1"/>
<path d="M8.63828 24.8127C6.92569 24.2679 5.35203 23.3573 4.02636 22.1439C2.70069 20.9304 1.65472 19.4433 0.960938 17.7855C0.267152 16.1276 -0.0578561 14.3388 0.0084363 12.5428C0.0747287 10.7469 0.530737 8.98686 1.34486 7.38469C2.15898 5.78252 3.31174 4.37652 4.72326 3.26415C6.13478 2.15178 7.77129 1.35963 9.51939 0.942604C11.2675 0.525577 13.0854 0.493643 14.847 0.849017C16.6087 1.20439 18.272 1.93857 19.7217 3.00068L17.3389 6.25312C16.3607 5.53648 15.2384 5.0411 14.0497 4.80131C12.8611 4.56153 11.6345 4.58308 10.455 4.86446C9.27549 5.14584 8.17127 5.68034 7.21887 6.43089C6.26646 7.18145 5.48865 8.13013 4.93934 9.21117C4.39002 10.2922 4.08233 11.4798 4.0376 12.6916C3.99287 13.9033 4.21217 15.1103 4.68029 16.229C5.14841 17.3476 5.85417 18.351 6.74864 19.1697C7.64312 19.9885 8.70493 20.6029 9.86048 20.9705L8.63828 24.8127Z" fill="#1E4C2F"/>
<path d="M34.0375 18.5V6.775H31.43V18.5H34.0375ZM39.5149 18.675C42.0349 18.675 43.6449 17.5725 43.6449 15.7V15.525H41.0549V15.63C41.0549 16.1725 40.5999 16.4 39.5499 16.4C38.1149 16.4 37.6249 15.91 37.5724 14.685H43.6099C43.6624 14.3875 43.7324 13.88 43.7324 13.39C43.7324 11.0975 42.1749 9.5225 39.5324 9.5225C36.7849 9.5225 35.1049 11.3075 35.1049 14.125C35.1049 16.9075 36.4874 18.675 39.5149 18.675ZM39.4449 11.675C40.6699 11.675 41.2649 12.1825 41.2124 13.0925H37.5899C37.6949 12.165 38.1849 11.675 39.4449 11.675ZM47.4519 18.5V13.5125C47.4519 12.1825 47.9944 11.78 49.2544 11.78C50.5844 11.78 50.9869 12.2175 50.9869 13.4425V18.5H53.6119V12.9175C53.6119 11.045 52.6319 9.5225 50.3394 9.5225C48.7994 9.5225 47.8544 10.24 47.3819 11.2375H47.2769V9.6975H44.8444V18.5H47.4519ZM57.6112 18.5V13.5125C57.6112 12.1825 58.1537 11.78 59.4137 11.78C60.7437 11.78 61.1462 12.2175 61.1462 13.4425V18.5H63.7712V12.9175C63.7712 11.045 62.7912 9.5225 60.4987 9.5225C58.9587 9.5225 58.0137 10.24 57.5412 11.2375H57.4362V9.6975H55.0037V18.5H57.6112ZM66.4537 21.475C68.1862 21.475 69.1662 20.915 69.9187 19.1125L73.8387 9.6975H70.9162L69.6737 13.3725L69.1312 15.07H68.9387L68.3087 13.3725L66.8737 9.6975H63.9512L67.6437 18.1325L67.4862 18.465C67.2237 19.025 66.9787 19.1125 66.3137 19.1125H64.8437V21.2825C65.2112 21.37 65.8587 21.475 66.4537 21.475ZM76.3508 18.5V15.4025H73.0608V18.5H76.3508Z" fill="#0B0F0E"/>
</svg>
