<svg width="104" height="32" viewBox="0 0 104 32" fill="none" xmlns="http://www.w3.org/2000/svg">
<g clip-path="url(#clip0_302_24762)">
<rect width="32" height="32" fill="#1E4C2F"/>
<path d="M10.959 12.5671C11.1739 11.093 12.4379 10 13.9276 10H22.0724C23.5621 10 24.8261 11.093 25.041 12.5671L26.4994 22.5671C26.7633 24.3771 25.3599 26 23.5308 26H12.4692C10.6401 26 9.23667 24.3771 9.50063 22.5671L10.959 12.5671Z" fill="#143C23"/>
<path d="M8.95897 10.5671C9.17393 9.09304 10.4379 8 11.9276 8H20.0724C21.5621 8 22.8261 9.09304 23.041 10.5671L24.4994 20.5671C24.7633 22.3771 23.3599 24 21.5308 24H10.4692C8.64006 24 7.23667 22.3771 7.50063 20.5671L8.95897 10.5671Z" fill="white"/>
<path d="M19.3256 14C19.7288 14 20.0623 14.3294 19.9901 14.7261C19.9387 15.0086 19.8573 15.2855 19.7469 15.552C19.5431 16.0441 19.2444 16.4912 18.8678 16.8678C18.4912 17.2444 18.0441 17.5431 17.552 17.7469C17.06 17.9507 16.5326 18.0556 16 18.0556C15.4674 18.0556 14.94 17.9507 14.448 17.7469C13.9559 17.5431 13.5088 17.2444 13.1322 16.8678C12.7556 16.4912 12.4569 16.0441 12.2531 15.552C12.1427 15.2855 12.0613 15.0086 12.0099 14.7261C11.9377 14.3294 12.2712 14 12.6744 14C13.0775 14 13.3945 14.3331 13.5064 14.7204C13.5331 14.8129 13.565 14.904 13.602 14.9933C13.7324 15.3082 13.9236 15.5943 14.1646 15.8354C14.4057 16.0764 14.6918 16.2676 15.0067 16.398C15.3216 16.5285 15.6591 16.5956 16 16.5956C16.3409 16.5956 16.6784 16.5285 16.9933 16.398C17.3082 16.2676 17.5943 16.0764 17.8354 15.8354C18.0764 15.5943 18.2676 15.3082 18.398 14.9933C18.435 14.904 18.4669 14.8129 18.4936 14.7204C18.6055 14.3331 18.9225 14 19.3256 14Z" fill="#1E4C2F"/>
</g>
<path d="M44.68 24V7.92H41.104V24H44.68ZM52.1919 24.24C55.6479 24.24 57.8559 22.728 57.8559 20.16V19.92H54.3039V20.064C54.3039 20.808 53.6799 21.12 52.2399 21.12C50.2719 21.12 49.5999 20.448 49.5279 18.768H57.8079C57.8799 18.36 57.9759 17.664 57.9759 16.992C57.9759 13.848 55.8399 11.688 52.2159 11.688C48.4479 11.688 46.1439 14.136 46.1439 18C46.1439 21.816 48.0399 24.24 52.1919 24.24ZM52.0959 14.64C53.7759 14.64 54.5919 15.336 54.5199 16.584H49.5519C49.6959 15.312 50.3679 14.64 52.0959 14.64ZM63.0769 24V17.16C63.0769 15.336 63.8209 14.784 65.5489 14.784C67.3729 14.784 67.9249 15.384 67.9249 17.064V24H71.5249V16.344C71.5249 13.776 70.1809 11.688 67.0369 11.688C64.9249 11.688 63.6289 12.672 62.9809 14.04H62.8369V11.928H59.5009V24H63.0769ZM77.0097 24V17.16C77.0097 15.336 77.7537 14.784 79.4817 14.784C81.3057 14.784 81.8577 15.384 81.8577 17.064V24H85.4577V16.344C85.4577 13.776 84.1137 11.688 80.9697 11.688C78.8577 11.688 77.5617 12.672 76.9137 14.04H76.7697V11.928H73.4337V24H77.0097ZM89.1365 28.08C91.5125 28.08 92.8565 27.312 93.8885 24.84L99.2645 11.928H95.2565L93.5525 16.968L92.8085 19.296H92.5445L91.6805 16.968L89.7125 11.928H85.7045L90.7685 23.496L90.5525 23.952C90.1925 24.72 89.8565 24.84 88.9445 24.84H86.9285V27.816C87.4325 27.936 88.3205 28.08 89.1365 28.08ZM102.71 24V19.752H98.1977V24H102.71Z" fill="#0B0F0E"/>
<defs>
<clipPath id="clip0_302_24762">
<rect width="32" height="32" rx="10" fill="white"/>
</clipPath>
</defs>
</svg>
