<svg width="52" height="52" viewBox="0 0 52 52" fill="none" xmlns="http://www.w3.org/2000/svg">
<g id="Frame" clip-path="url(#clip0_3_855)">
<path id="Vector" d="M43.875 6.5V39C43.875 39.431 43.7038 39.8443 43.399 40.149C43.0943 40.4538 42.681 40.625 42.25 40.625H14.625C13.763 40.625 12.9364 40.9674 12.3269 41.5769C11.7174 42.1864 11.375 43.013 11.375 43.875H39C39.431 43.875 39.8443 44.0462 40.149 44.351C40.4538 44.6557 40.625 45.069 40.625 45.5C40.625 45.931 40.4538 46.3443 40.149 46.649C39.8443 46.9538 39.431 47.125 39 47.125H9.75C9.31902 47.125 8.9057 46.9538 8.60095 46.649C8.29621 46.3443 8.125 45.931 8.125 45.5V11.375C8.13036 9.65274 8.8169 8.00255 10.0347 6.78472C11.2526 5.5669 12.9027 4.88036 14.625 4.875H42.25C42.681 4.875 43.0943 5.0462 43.399 5.35095C43.7038 5.6557 43.875 6.06902 43.875 6.5Z" fill="#1E4C2F"/>
</g>
<defs>
<clipPath id="clip0_3_855">
<rect width="52" height="52" fill="white"/>
</clipPath>
</defs>
</svg>
