<svg width="52" height="52" viewBox="0 0 52 52" fill="none" xmlns="http://www.w3.org/2000/svg">
<g id="Frame" clip-path="url(#clip0_7_1133)">
<path id="Vector" d="M49.8469 12.4516L39.8125 6.72344C39.5661 6.57881 39.2858 6.50174 39 6.5H32.5C32.0691 6.5 31.6557 6.67121 31.351 6.97595C31.0462 7.2807 30.875 7.69402 30.875 8.125C30.875 9.41793 30.3614 10.6579 29.4472 11.5721C28.533 12.4864 27.293 13 26 13C24.7071 13 23.4671 12.4864 22.5529 11.5721C21.6387 10.6579 21.125 9.41793 21.125 8.125C21.125 7.69402 20.9538 7.2807 20.6491 6.97595C20.3443 6.67121 19.931 6.5 19.5 6.5H13C12.7143 6.50174 12.434 6.57881 12.1875 6.72344L2.15317 12.4516C1.42966 12.8591 0.890917 13.5297 0.648835 14.324C0.406753 15.1183 0.479931 15.9754 0.853172 16.7172L4.59067 24.2125C4.86168 24.7503 5.27679 25.2023 5.7897 25.5179C6.3026 25.8335 6.89312 26.0004 7.49536 26H11.375V42.25C11.375 43.112 11.7175 43.9386 12.3269 44.5481C12.9364 45.1576 13.7631 45.5 14.625 45.5H37.375C38.237 45.5 39.0636 45.1576 39.6731 44.5481C40.2826 43.9386 40.625 43.112 40.625 42.25V26H44.5047C45.107 26.0004 45.6975 25.8335 46.2104 25.5179C46.7233 25.2023 47.1384 24.7503 47.4094 24.2125L51.1469 16.7172C51.5202 15.9754 51.5933 15.1183 51.3513 14.324C51.1092 13.5297 50.5704 12.8591 49.8469 12.4516ZM7.49536 22.75L3.75786 15.275L11.375 10.9281V22.75H7.49536ZM44.5047 22.75H40.625V10.9281L48.2422 15.275L44.5047 22.75Z" fill="#1E4C2F"/>
</g>
<defs>
<clipPath id="clip0_7_1133">
<rect width="52" height="52" fill="white"/>
</clipPath>
</defs>
</svg>
