<svg width="53" height="52" viewBox="0 0 53 52" fill="none" xmlns="http://www.w3.org/2000/svg">
<g id="vuesax/bold/headphone">
<g id="headphone">
<path id="Vector" d="M6.45831 40.4083C5.56997 40.4083 4.83331 39.6716 4.83331 38.7833V26.4333C4.72497 20.5616 6.91331 15.015 10.9866 10.855C15.06 6.71665 20.52 4.44165 26.3916 4.44165C38.395 4.44165 48.1666 14.2133 48.1666 26.2167V38.5667C48.1666 39.455 47.43 40.1917 46.5416 40.1917C45.6533 40.1917 44.9166 39.455 44.9166 38.5667V26.2167C44.9166 16.0117 36.6183 7.69165 26.3916 7.69165C21.3866 7.69165 16.75 9.61998 13.305 13.13C9.83831 16.6617 7.99664 21.3633 8.08331 26.39V38.7617C8.08331 39.6716 7.36831 40.4083 6.45831 40.4083Z" fill="#1E4C2F"/>
<path id="Vector_2" d="M13.37 26.975H13.0884C8.53837 26.975 4.83337 30.68 4.83337 35.23V39.3033C4.83337 43.8533 8.53837 47.5583 13.0884 47.5583H13.37C17.92 47.5583 21.625 43.8533 21.625 39.3033V35.23C21.625 30.68 17.92 26.975 13.37 26.975Z" fill="#1E4C2F"/>
<path id="Vector_3" d="M39.9117 26.975H39.63C35.08 26.975 31.375 30.68 31.375 35.23V39.3033C31.375 43.8533 35.08 47.5583 39.63 47.5583H39.9117C44.4617 47.5583 48.1667 43.8533 48.1667 39.3033V35.23C48.1667 30.68 44.4617 26.975 39.9117 26.975Z" fill="#1E4C2F"/>
</g>
</g>
</svg>
