<svg width="52" height="52" viewBox="0 0 52 52" fill="none" xmlns="http://www.w3.org/2000/svg">
<g id="Frame" clip-path="url(#clip0_3_837)">
<path id="Vector" d="M43.6719 17.5094L37.6188 23.1969L43.7532 40.0766C43.8583 40.3682 43.8778 40.6838 43.8094 40.9861C43.741 41.2884 43.5876 41.5649 43.3672 41.7829L38.4922 46.6579C38.3216 46.8242 38.1172 46.952 37.893 47.0326C37.6687 47.1132 37.4297 47.1447 37.1922 47.125C36.9562 47.0986 36.7287 47.0214 36.5253 46.8987C36.3219 46.7759 36.1475 46.6106 36.0141 46.4141L27.361 33.7594L23.5422 37.2735V41.4375C23.5371 41.8723 23.3621 42.2878 23.0547 42.5954L18.9922 46.6579C18.8427 46.8067 18.6652 46.9246 18.47 47.0047C18.2748 47.0849 18.0657 47.1258 17.8547 47.125L17.4891 47.0844C17.219 47.0233 16.969 46.8942 16.7628 46.7094C16.5566 46.5245 16.4011 46.29 16.311 46.0282L13.6907 38.2891L5.95161 35.6688C5.68975 35.5787 5.45527 35.4232 5.27041 35.217C5.08555 35.0108 4.95645 34.7608 4.89536 34.4907C4.83642 34.2212 4.84449 33.9414 4.91886 33.6758C4.99323 33.4102 5.13163 33.1669 5.32192 32.9672L9.38442 28.9047C9.69399 28.6029 10.1099 28.4351 10.5422 28.4375H14.7469L18.5454 24.6188L5.56567 15.986C5.37213 15.8448 5.20931 15.6658 5.0871 15.4598C4.96488 15.2538 4.88583 15.0251 4.85474 14.7876C4.83208 14.5468 4.86214 14.3039 4.94282 14.0759C5.0235 13.8479 5.15286 13.6402 5.32192 13.4672L10.1969 8.59224C10.4157 8.37318 10.6933 8.2221 10.996 8.15723C11.2988 8.09235 11.6138 8.11645 11.9032 8.22661L28.7829 14.361L34.186 8.63286C34.2426 8.54904 34.3111 8.47379 34.3891 8.40943C35.5805 7.24962 37.1711 6.5905 38.8337 6.56763C40.4963 6.54477 42.1044 7.15991 43.3272 8.28651C44.5501 9.41311 45.2948 10.9655 45.408 12.6244C45.5212 14.2832 44.9944 15.9224 43.936 17.2047C43.8643 17.3194 43.7753 17.4222 43.6719 17.5094Z" fill="#1E4C2F"/>
</g>
<defs>
<clipPath id="clip0_3_837">
<rect width="52" height="52" fill="white"/>
</clipPath>
</defs>
</svg>
