<svg width="53" height="52" viewBox="0 0 53 52" fill="none" xmlns="http://www.w3.org/2000/svg">
<g id="vuesax/bold/game">
<g id="game">
<path id="Vector" d="M36.5749 12.3933H16.4249C10.0333 12.3933 4.83325 17.5933 4.83325 23.985V36.075C4.83325 42.4666 10.0333 47.6666 16.4249 47.6666H36.5749C42.9666 47.6666 48.1666 42.4666 48.1666 36.075V23.985C48.1666 17.5933 42.9666 12.3933 36.5749 12.3933ZM31.9166 26.0433C31.9166 24.8516 32.8916 23.8766 34.0833 23.8766C35.2749 23.8766 36.2499 24.8516 36.2499 26.0433C36.2499 27.235 35.2749 28.2316 34.0833 28.2316C32.8916 28.2316 31.9166 27.2783 31.9166 26.0866V26.0433ZM22.4483 34.8183C22.1233 35.1433 21.7116 35.295 21.2999 35.295C20.8883 35.295 20.4766 35.1433 20.1516 34.8183L17.9199 32.5866L15.7749 34.7316C15.4499 35.0566 15.0383 35.2083 14.6266 35.2083C14.2149 35.2083 13.8033 35.0566 13.4783 34.7316C12.8499 34.1033 12.8499 33.0633 13.4783 32.435L15.6233 30.29L13.5433 28.21C12.9149 27.5816 12.9149 26.5416 13.5433 25.9133C14.1716 25.285 15.2116 25.285 15.8399 25.9133L17.9199 27.9933L20.0649 25.8483C20.6933 25.22 21.7333 25.22 22.3616 25.8483C22.9899 26.4766 22.9899 27.5166 22.3616 28.145L20.2166 30.29L22.4483 32.5216C23.0766 33.15 23.0766 34.19 22.4483 34.8183ZM29.8366 32.5C28.6449 32.5 27.6483 31.525 27.6483 30.3333C27.6483 29.1416 28.6016 28.1666 29.7933 28.1666H29.8366C31.0283 28.1666 32.0033 29.1416 32.0033 30.3333C32.0033 31.525 31.0499 32.5 29.8366 32.5ZM34.0833 36.7683C32.8916 36.7683 31.9166 35.815 31.9166 34.6233V34.58C31.9166 33.3883 32.8916 32.4133 34.0833 32.4133C35.2749 32.4133 36.2499 33.3883 36.2499 34.58C36.2499 35.7716 35.2966 36.7683 34.0833 36.7683ZM38.3733 32.5C37.1816 32.5 36.1849 31.525 36.1849 30.3333C36.1849 29.1416 37.1383 28.1666 38.3299 28.1666H38.3733C39.5649 28.1666 40.5399 29.1416 40.5399 30.3333C40.5399 31.525 39.5866 32.5 38.3733 32.5Z" fill="#1E4C2F"/>
<path id="Vector_2" d="M30.0534 5.87171L30.0318 7.90837C30.0101 9.81504 28.4284 11.3967 26.5001 11.3967C26.1751 11.3967 25.9801 11.6134 25.9801 11.895C25.9801 12.1767 26.1968 12.3934 26.4784 12.3934H22.9901C22.9684 12.2417 22.9468 12.0684 22.9468 11.895C22.9468 9.94504 24.5284 8.36337 26.4568 8.36337C26.7818 8.36337 26.9984 8.14671 26.9984 7.86504L27.0201 5.82837C27.0418 5.00504 27.7134 4.33337 28.5368 4.33337H28.5584C29.4034 4.33337 30.0534 5.02671 30.0534 5.87171Z" fill="#1E4C2F"/>
</g>
</g>
</svg>
