<svg width="20" height="21" viewBox="0 0 20 21" fill="none" xmlns="http://www.w3.org/2000/svg">
<g id="vuesax/linear/discount-shape">
<path id="Vector" d="M3.32408 12.717L2.05742 11.4504C1.54076 10.9337 1.54076 10.0837 2.05742 9.56701L3.32408 8.30033C3.54075 8.08366 3.71575 7.65866 3.71575 7.35866V5.56697C3.71575 4.83364 4.31575 4.23366 5.04909 4.23366H6.84075C7.14075 4.23366 7.56575 4.05869 7.78242 3.84202L9.04908 2.57534C9.56574 2.05867 10.4158 2.05867 10.9324 2.57534L12.1991 3.84202C12.4158 4.05869 12.8407 4.23366 13.1407 4.23366H14.9324C15.6658 4.23366 16.2657 4.83364 16.2657 5.56697V7.35866C16.2657 7.65866 16.4407 8.08366 16.6574 8.30033L17.9241 9.56701C18.4408 10.0837 18.4408 10.9337 17.9241 11.4504L16.6574 12.717C16.4407 12.9337 16.2657 13.3587 16.2657 13.6587V15.4503C16.2657 16.1836 15.6658 16.7837 14.9324 16.7837H13.1407C12.8407 16.7837 12.4158 16.9587 12.1991 17.1754L10.9324 18.442C10.4158 18.9587 9.56574 18.9587 9.04908 18.442L7.78242 17.1754C7.56575 16.9587 7.14075 16.7837 6.84075 16.7837H5.04909C4.31575 16.7837 3.71575 16.1836 3.71575 15.4503V13.6587C3.71575 13.3504 3.54075 12.9254 3.32408 12.717Z" stroke="#1D9E34" stroke-width="1.5" stroke-linecap="round" stroke-linejoin="round"/>
<path id="Vector_2" d="M7.5 13L12.5 8" stroke="#1D9E34" stroke-width="1.5" stroke-linecap="round" stroke-linejoin="round"/>
<path id="Vector_3" d="M12.0781 12.5833H12.0856" stroke="#1D9E34" stroke-width="2" stroke-linecap="round" stroke-linejoin="round"/>
<path id="Vector_4" d="M7.91209 8.41667H7.91957" stroke="#1D9E34" stroke-width="2" stroke-linecap="round" stroke-linejoin="round"/>
</g>
</svg>
